<?xml version="1.0" encoding="UTF-8" standalone="no"?>
<!DOCTYPE svg PUBLIC "-//W3C//DTD SVG 1.1//EN"
 "http://www.w3.org/Graphics/SVG/1.1/DTD/svg11.dtd">
<!-- Generated by graphviz version 2.43.0 (0)
 -->
<!-- Title: G Pages: 1 -->
<svg width="489pt" height="662pt"
 viewBox="0.00 0.00 488.50 662.44" xmlns="http://www.w3.org/2000/svg" xmlns:xlink="http://www.w3.org/1999/xlink">
<g id="graph0" class="graph" transform="scale(1 1) rotate(0) translate(4 658.44)">
<title>G</title>
<polygon fill="white" stroke="transparent" points="-4,4 -4,-658.44 484.5,-658.44 484.5,4 -4,4"/>
<text text-anchor="middle" x="240.25" y="-639.24" font-family="Times,serif" font-size="14.00">Linux host</text>
<g id="clust4" class="cluster">
<title>clusterNs1</title>
<polygon fill="none" stroke="black" points="8,-8 8,-172 150,-172 150,-8 8,-8"/>
<text text-anchor="middle" x="79" y="-156.8" font-family="Times,serif" font-size="14.00">container1&#45;ns</text>
</g>
<g id="clust5" class="cluster">
<title>clusterNs2</title>
<polygon fill="none" stroke="black" points="158,-8 158,-172 300,-172 300,-8 158,-8"/>
<text text-anchor="middle" x="229" y="-156.8" font-family="Times,serif" font-size="14.00">container2&#45;ns</text>
</g>
<!-- start -->
<g id="node1" class="node">
<title>start</title>
<ellipse fill="none" stroke="black" cx="156" cy="-589.72" rx="41.94" ry="41.94"/>
<text text-anchor="middle" x="156" y="-593.52" font-family="Times,serif" font-size="14.00">start</text>
<text text-anchor="middle" x="156" y="-578.52" font-family="Times,serif" font-size="14.00">(ping)</text>
</g>
<!-- containers -->
<g id="node5" class="node">
<title>containers</title>
<polygon fill="none" stroke="black" points="218.5,-511 93.5,-511 93.5,-386 218.5,-386 218.5,-511"/>
<text text-anchor="middle" x="156" y="-459.8" font-family="Times,serif" font-size="14.00">containers</text>
<text text-anchor="middle" x="156" y="-444.8" font-family="Times,serif" font-size="14.00">[bridge]</text>
<text text-anchor="middle" x="156" y="-429.8" font-family="Times,serif" font-size="14.00">192.168.0.1/16</text>
</g>
<!-- start&#45;&gt;containers -->
<g id="edge1" class="edge">
<title>start&#45;&gt;containers</title>
<path fill="none" stroke="black" d="M156,-547.7C156,-539.37 156,-530.37 156,-521.33"/>
<polygon fill="black" stroke="black" points="159.5,-521.13 156,-511.13 152.5,-521.13 159.5,-521.13"/>
</g>
<!-- loopback -->
<g id="node2" class="node">
<title>loopback</title>
<polygon fill="none" stroke="black" points="321,-490.5 237,-490.5 237,-406.5 321,-406.5 321,-490.5"/>
<text text-anchor="middle" x="279" y="-452.3" font-family="Times,serif" font-size="14.00">localhost</text>
<text text-anchor="middle" x="279" y="-437.3" font-family="Times,serif" font-size="14.00">127.0.0.1</text>
</g>
<!-- docker -->
<g id="node3" class="node">
<title>docker</title>
<polygon fill="none" stroke="black" points="413,-485.5 339,-485.5 339,-411.5 413,-411.5 413,-485.5"/>
<text text-anchor="middle" x="376" y="-444.8" font-family="Times,serif" font-size="14.00">docker0</text>
</g>
<!-- eth -->
<g id="node4" class="node">
<title>eth</title>
<polygon fill="none" stroke="black" points="480.5,-473 431.5,-473 431.5,-424 480.5,-424 480.5,-473"/>
<text text-anchor="middle" x="456" y="-444.8" font-family="Times,serif" font-size="14.00">eth0</text>
</g>
<!-- container1Out -->
<g id="node6" class="node">
<title>container1Out</title>
<polygon fill="none" stroke="black" points="147.5,-349 26.5,-349 26.5,-228 147.5,-228 147.5,-349"/>
<text text-anchor="middle" x="87" y="-284.8" font-family="Times,serif" font-size="14.00">container1&#45;out</text>
</g>
<!-- containers&#45;&gt;container1Out -->
<g id="edge2" class="edge">
<title>containers&#45;&gt;container1Out</title>
<path fill="none" stroke="black" d="M129.13,-385.96C125.19,-376.96 121.12,-367.64 117.13,-358.5"/>
<polygon fill="black" stroke="black" points="120.22,-356.82 113.01,-349.06 113.8,-359.62 120.22,-356.82"/>
</g>
<!-- container2Out -->
<g id="node7" class="node">
<title>container2Out</title>
<polygon fill="none" stroke="black" points="287.5,-349 166.5,-349 166.5,-228 287.5,-228 287.5,-349"/>
<text text-anchor="middle" x="227" y="-284.8" font-family="Times,serif" font-size="14.00">container2&#45;out</text>
</g>
<!-- containers&#45;&gt;container2Out -->
<g id="edge3" class="edge">
<title>containers&#45;&gt;container2Out</title>
<path fill="none" stroke="black" d="M183.65,-385.96C187.74,-376.86 191.98,-367.44 196.13,-358.21"/>
<polygon fill="black" stroke="black" points="199.33,-359.61 200.24,-349.06 192.95,-356.74 199.33,-359.61"/>
</g>
<!-- container1In -->
<g id="node8" class="node">
<title>container1In</title>
<polygon fill="none" stroke="black" points="141.5,-141 16.5,-141 16.5,-16 141.5,-16 141.5,-141"/>
<text text-anchor="middle" x="79" y="-82.3" font-family="Times,serif" font-size="14.00">container1&#45;in</text>
<text text-anchor="middle" x="79" y="-67.3" font-family="Times,serif" font-size="14.00">192.168.2.1/24</text>
</g>
<!-- container1Out&#45;&gt;container1In -->
<g id="edge4" class="edge">
<title>container1Out&#45;&gt;container1In</title>
<path fill="none" stroke="black" d="M84.71,-227.9C84.16,-213.59 83.55,-197.91 82.95,-182.26"/>
<polygon fill="black" stroke="black" points="86.44,-181.85 82.56,-172 79.44,-182.12 86.44,-181.85"/>
<text text-anchor="middle" x="122" y="-198.8" font-family="Times,serif" font-size="14.00">peer route</text>
<text text-anchor="middle" x="122" y="-183.8" font-family="Times,serif" font-size="14.00">&quot;tunnel&quot;</text>
</g>
<!-- container2In -->
<g id="node9" class="node">
<title>container2In</title>
<polygon fill="none" stroke="black" points="291.5,-141 166.5,-141 166.5,-16 291.5,-16 291.5,-141"/>
<text text-anchor="middle" x="229" y="-82.3" font-family="Times,serif" font-size="14.00">container2&#45;in</text>
<text text-anchor="middle" x="229" y="-67.3" font-family="Times,serif" font-size="14.00">192.168.3.1/24</text>
</g>
<!-- container2Out&#45;&gt;container2In -->
<g id="edge5" class="edge">
<title>container2Out&#45;&gt;container2In</title>
<path fill="none" stroke="black" d="M227.57,-227.9C227.71,-213.59 227.86,-197.91 228.01,-182.26"/>
<polygon fill="black" stroke="black" points="231.51,-182.03 228.11,-172 224.51,-181.96 231.51,-182.03"/>
<text text-anchor="middle" x="266" y="-198.8" font-family="Times,serif" font-size="14.00">peer route</text>
<text text-anchor="middle" x="266" y="-183.8" font-family="Times,serif" font-size="14.00">&quot;tunnel&quot;</text>
</g>
</g>
</svg>
